<svg width="22" height="14" viewBox="0 0 22 14" fill="none" xmlns="http://www.w3.org/2000/svg">
<path d="M0.684341 2.74757C0.683537 2.38118 0.791172 2.0228 0.993589 1.71794C1.19601 1.41307 1.48408 1.17546 1.82124 1.03525C2.15841 0.895051 2.52946 0.858582 2.8873 0.930476C3.24514 1.00237 3.57364 1.17938 3.83111 1.43905L11.0003 8.63684L18.1694 1.43905C18.3406 1.26721 18.5438 1.13091 18.7674 1.03791C18.991 0.944911 19.2307 0.897045 19.4727 0.897045C19.7148 0.897045 19.9545 0.944911 20.1781 1.03791C20.4017 1.13091 20.6049 1.26721 20.7761 1.43905C20.9472 1.61089 21.083 1.81489 21.1756 2.03941C21.2682 2.26392 21.3159 2.50456 21.3159 2.74757C21.3159 2.99059 21.2682 3.23122 21.1756 3.45574C21.083 3.68025 20.9472 3.88426 20.7761 4.05609L12.3036 12.5624C12.1325 12.7344 11.9294 12.8709 11.7057 12.964C11.4821 13.0571 11.2424 13.1051 11.0003 13.1051C10.7582 13.1051 10.5184 13.0571 10.2948 12.964C10.0712 12.8709 9.868 12.7344 9.69695 12.5624L1.22447 4.05609C1.05303 3.88445 0.917065 3.68049 0.824371 3.45594C0.731678 3.23138 0.684092 2.99065 0.684341 2.74757Z" fill="#371900"/>
</svg>
