<svg width="24" height="24" viewBox="0 0 24 24" fill="none" xmlns="http://www.w3.org/2000/svg">
<g clip-path="url(#clip0_908_233)">
<path d="M14.4052 0V9.82665C14.4141 9.89834 14.4002 9.97102 14.3653 10.0343C14.3304 10.0976 14.2764 10.1482 14.211 10.1789C14.1457 10.2096 14.0722 10.2189 14.0013 10.2054C13.9303 10.1919 13.8654 10.1563 13.8159 10.1037L11.2975 7.41406C11.2668 7.37708 11.2283 7.34731 11.1848 7.32688C11.1413 7.30645 11.0938 7.29586 11.0457 7.29586C10.9976 7.29586 10.9501 7.30645 10.9066 7.32688C10.8631 7.34731 10.8246 7.37708 10.7939 7.41406L8.27551 10.1037C8.226 10.1563 8.16113 10.1919 8.09016 10.2054C8.01919 10.2189 7.94576 10.2096 7.88038 10.1789C7.815 10.1482 7.76102 10.0976 7.72614 10.0343C7.69127 9.97102 7.67729 9.89834 7.68622 9.82665V0H14.4052Z" fill="#371900"/>
<path d="M19.4567 0H15.931V12.8789C15.9336 12.9798 15.9059 13.0792 15.8514 13.1641C15.7969 13.2491 15.7181 13.3157 15.6253 13.3553C15.5324 13.3949 15.4298 13.4058 15.3308 13.3864C15.2317 13.367 15.1408 13.3183 15.0697 13.2466L11.408 9.72088C11.3139 9.62859 11.1873 9.5769 11.0555 9.5769C10.9236 9.5769 10.797 9.62859 10.7029 9.72088L7.04119 13.2466C6.97014 13.3183 6.8792 13.367 6.78014 13.3864C6.68108 13.4058 6.57849 13.3949 6.48566 13.3553C6.39283 13.3157 6.31404 13.2491 6.25953 13.1641C6.20501 13.0792 6.17727 12.9798 6.17991 12.8789V0H4.53794C3.3357 0 2.1827 0.477588 1.33258 1.3277C0.482471 2.17781 0.00488281 3.33081 0.00488281 4.53305V19.4518C0.00488281 20.6541 0.482471 21.8071 1.33258 22.6572C2.1827 23.5073 3.3357 23.9849 4.53794 23.9849H19.4567C20.659 23.9849 21.812 23.5073 22.6621 22.6572C23.5122 21.8071 23.9898 20.6541 23.9898 19.4518V4.53809C23.9904 3.94238 23.8737 3.35238 23.6462 2.80182C23.4186 2.25126 23.0849 1.75095 22.6639 1.32948C22.2429 0.908014 21.7429 0.573662 21.1926 0.345539C20.6423 0.117417 20.0524 -3.67723e-07 19.4567 0ZM16.3239 21.3305H4.73941C4.53903 21.3305 4.34686 21.2509 4.20518 21.1093C4.06349 20.9676 3.9839 20.7754 3.9839 20.575C3.9839 20.3747 4.06349 20.1825 4.20518 20.0408C4.34686 19.8991 4.53903 19.8195 4.73941 19.8195H16.3239C16.5243 19.8195 16.7164 19.8991 16.8581 20.0408C16.9998 20.1825 17.0794 20.3747 17.0794 20.575C17.0794 20.7754 16.9998 20.9676 16.8581 21.1093C16.7164 21.2509 16.5243 21.3305 16.3239 21.3305ZM20.5346 17.8048H4.72933C4.52896 17.8048 4.33679 17.7252 4.19511 17.5835C4.05342 17.4419 3.97382 17.2497 3.97382 17.0493C3.97382 16.8489 4.05342 16.6568 4.19511 16.5151C4.33679 16.3734 4.52896 16.2938 4.72933 16.2938H20.5346C20.735 16.2938 20.9271 16.3734 21.0688 16.5151C21.2105 16.6568 21.2901 16.8489 21.2901 17.0493C21.2901 17.2497 21.2105 17.4419 21.0688 17.5835C20.9271 17.7252 20.735 17.8048 20.5346 17.8048Z" fill="#371900"/>
</g>
<defs>
<clipPath id="clip0_908_233">
<rect width="24" height="24" fill="white"/>
</clipPath>
</defs>
</svg>
