<svg width="24" height="24" viewBox="0 0 24 24" fill="none" xmlns="http://www.w3.org/2000/svg">
<g clip-path="url(#clip0_908_217)">
<path d="M12 9.72021C14.4853 9.72021 16.5 7.7055 16.5 5.22021C16.5 2.73493 14.4853 0.720215 12 0.720215C9.51472 0.720215 7.5 2.73493 7.5 5.22021C7.5 7.7055 9.51472 9.72021 12 9.72021Z" fill="#371900"/>
<path d="M23.1448 20.1304C22.678 18.0051 21.6077 16.0598 20.0623 14.5279C19.6872 14.1515 19.2808 13.8078 18.8473 13.5004C16.8733 12.0197 14.4673 11.2292 11.9998 11.2504C8.98267 11.235 6.0818 12.4131 3.92982 14.5279C2.38445 16.0598 1.3141 18.0051 0.847318 20.1304C0.766183 20.5062 0.770566 20.8955 0.860142 21.2693C0.949717 21.6432 1.12219 21.9922 1.36482 22.2904C1.61609 22.5951 1.9325 22.8395 2.29075 23.0056C2.64899 23.1718 3.03995 23.2554 3.43482 23.2504H20.5648C20.9608 23.2507 21.3519 23.1618 21.7089 22.9904C22.0659 22.8191 22.3798 22.5696 22.6273 22.2604C22.8656 21.9657 23.0356 21.6218 23.1251 21.2535C23.2145 20.8852 23.2213 20.5016 23.1448 20.1304Z" fill="#371900"/>
</g>
<defs>
<clipPath id="clip0_908_217">
<rect width="24" height="24" fill="white"/>
</clipPath>
</defs>
</svg>
