<svg width="24" height="24" viewBox="0 0 24 24" fill="none" xmlns="http://www.w3.org/2000/svg">
<g clip-path="url(#clip0_908_207)">
<path d="M12.0082 0C9.67832 0.00442661 7.40005 0.686283 5.45085 1.96251C3.50165 3.23875 1.96565 5.05427 1.02994 7.18795C0.0942238 9.32163 -0.200814 11.6814 0.180761 13.9798C0.562336 16.2781 1.60405 18.416 3.17903 20.1328C4.3039 21.3521 5.66913 22.3252 7.1887 22.9908C8.70826 23.6564 10.3492 24 12.0082 24C13.6671 24 15.308 23.6564 16.8276 22.9908C18.3472 22.3252 19.7124 21.3521 20.8373 20.1328C22.4123 18.416 23.454 16.2781 23.8355 13.9798C24.2171 11.6814 23.9221 9.32163 22.9864 7.18795C22.0507 5.05427 20.5147 3.23875 18.5655 1.96251C16.6163 0.686283 14.338 0.00442661 12.0082 0ZM20.3087 16.8174C19.2355 14.9816 17.5836 13.5536 15.6119 12.7572C16.2235 12.0637 16.622 11.2084 16.7596 10.294C16.8972 9.37955 16.768 8.44486 16.3876 7.60205C16.0071 6.75924 15.3916 6.04412 14.6147 5.54249C13.8379 5.04086 12.9329 4.77403 12.0082 4.77403C11.0835 4.77403 10.1784 5.04086 9.40157 5.54249C8.62475 6.04412 8.00918 6.75924 7.62873 7.60205C7.24827 8.44486 7.11908 9.37955 7.25668 10.294C7.39427 11.2084 7.7928 12.0637 8.40443 12.7572C6.43271 13.5536 4.78085 14.9816 3.70757 16.8174C2.85222 15.3604 2.40029 13.7019 2.39822 12.0124C2.39822 9.4637 3.41069 7.01938 5.21291 5.21717C7.01512 3.41496 9.45944 2.40248 12.0082 2.40248C14.5569 2.40248 17.0012 3.41496 18.8034 5.21717C20.6056 7.01938 21.6181 9.4637 21.6181 12.0124C21.616 13.7019 21.1641 15.3604 20.3087 16.8174Z" fill="#371900"/>
</g>
<defs>
<clipPath id="clip0_908_207">
<rect width="24" height="24" fill="white"/>
</clipPath>
</defs>
</svg>
